<svg xmlns="http://www.w3.org/2000/svg" height="40" viewBox="0 -960 960 960" width="40"><path d="M583.333-252q-9.35 0-16.675-7.325-7.325-7.325-7.325-16.675v-408q0-9.35 7.325-16.675Q573.983-708 583.333-708H672q9.35 0 16.675 7.325Q696-693.35 696-684v408q0 9.35-7.325 16.675Q681.35-252 672-252h-88.667ZM288-252q-9.35 0-16.675-7.325Q264-266.65 264-276v-408q0-9.35 7.325-16.675Q278.65-708 288-708h89.333q8.834 0 16.417 7.325 7.583 7.325 7.583 16.675v408q0 9.35-7.583 16.675Q386.167-252 377.333-252H288Z"/></svg>